<?xml version="1.0" encoding="UTF-8" standalone="no"?>
<svg
   id="Layer_1"
   version="1.1"
   viewBox="0 0 42.5 42.5"
   sodipodi:docname="favicon.svg"
   inkscape:version="1.4 (86a8ad7, 2024-10-11)"
   xmlns:inkscape="http://www.inkscape.org/namespaces/inkscape"
   xmlns:sodipodi="http://sodipodi.sourceforge.net/DTD/sodipodi-0.dtd"
   xmlns="http://www.w3.org/2000/svg"
   xmlns:svg="http://www.w3.org/2000/svg">
  <sodipodi:namedview
     id="namedview1"
     pagecolor="#ffffff"
     bordercolor="#000000"
     borderopacity="0.25"
     inkscape:showpageshadow="2"
     inkscape:pageopacity="0.0"
     inkscape:pagecheckerboard="0"
     inkscape:deskcolor="#d1d1d1"
     inkscape:zoom="15.2"
     inkscape:cx="21.25"
     inkscape:cy="21.25"
     inkscape:window-width="1440"
     inkscape:window-height="890"
     inkscape:window-x="-6"
     inkscape:window-y="-6"
     inkscape:window-maximized="1"
     inkscape:current-layer="Layer_1" />
  <!-- Generator: Adobe Illustrator 29.1.0, SVG Export Plug-In . SVG Version: 2.1.0 Build 142)  -->
  <defs
     id="defs1">
    <style
       id="style1">
      .st0 {
        fill: #db5349;
      }
    </style>
  </defs>
  <path
     class="st0"
     d="m 32.8,0.4 v 0 0.9 h 0.3 c 0.1,0 0.3,0.1 0.4,0.2 0.2,0 0.3,0.2 0.4,0.4 0.4,0.7 0.3,2 -0.2,3.5 L 21.3,35 9.1,5.4 C 8.5,3.9 8.4,2.6 8.8,1.9 9,1.6 9.2,1.4 9.5,1.4 h 0.3 v -1 H 0 v 0.9 h 0.3 c 1.4,0.3 2.9,2 3.7,4.3 l 14.6,36.5 h 1.7 L 35.1,6.4 c 1.175081,-2.3631931 1.400793,-4.7345158 7.1,-6 z"
     id="path1"
     sodipodi:nodetypes="cccsccccccsccccccccccc" />
</svg>
